<svg xmlns="http://www.w3.org/2000/svg" width="1184" height="864" viewBox="0 0 1184 864"><path fill="#0b0b0a" d="m446.26 460.75-.38 75.25-11.19-.04c-9.07-.04-11.88-.41-14.84-1.98-5.07-2.68-7.85-7.53-7.85-13.71v-5l-6.5-.52c-3.6-.29-7.65-1.28-9.08-2.21-4.99-3.27-5.55-6.62-5.22-31.12l.3-22.39 3.24-3.23c2.9-2.91 3.93-3.27 10.17-3.63l6.95-.39.42-38.64c.4-36.8.54-39.21 2.98-50.64 10.87-50.97 40.77-94.33 84.02-121.84 13.76-8.75 34.33-17.93 48.72-21.75 45.04-11.95 90.84-7.55 130.98 12.58 50.64 25.4 86.57 73.02 98.73 130.87 2.42 11.51 2.58 14.15 3.01 50.78l.46 38.64 7.03.4c6.42.36 7.27.68 9.91 3.63l2.88 3.22v23.54c0 30.21-.36 31.09-13.19 31.78l-6.31.34-.59 6.02c-.65 6.75-3.34 11.43-7.94 13.81-2.05 1.06-6.16 1.48-14.37 1.48h-11.51l-.35-76.25c-.35-74.77-.4-76.44-2.61-86.25-7.57-33.67-20.96-58.59-43.53-81.04-21.84-21.71-45.42-34.67-74.9-41.15-11.55-2.54-43.55-2.52-55.7.03-23.94 5.02-45.21 15.08-64.5 30.49-29.8 23.81-47.73 53.01-56.2 91.56l-2.66 12.11Zm53.77 101c-3.96 2-5.91 2.25-17.49 2.21-13.83-.04-17.78-.97-22.38-5.26-.71-.67-1.33-1.2-1.86-1.79-3.31-3.72-3.31-10.37-3.3-73.42v-18.41c-.01-61.99-.01-69.72 3.85-73.55.75-.74 1.65-1.33 2.71-2.15 3.75-2.86 3.89-2.88 19.87-3.19 15.47-.31 16.22-.23 19.55 2.02 1.91 1.29 4.5 3.86 5.75 5.71l2.27 3.38-.03 154.2-2.24 4c-1.47 2.64-3.76 4.77-6.7 6.25m228.55.35c-3.28 1.49-6.52 1.85-16.58 1.84-13.26-.02-17.27-.98-21.84-5.24-.68-.64-1.27-1.15-1.79-1.72-3.42-3.84-3.29-10.85-3.42-82.22 0-3.21-.01-6.29-.02-9.24-.11-62.84-.13-69.6 3.23-73.3.57-.62 1.23-1.15 1.99-1.85 4.39-3.97 6.35-4.37 21.32-4.37 16.84 0 20.61 1.18 24.68 7.72l2.35 3.78.27 74.8c.18 48.96-.08 76.12-.75 78.62-1.4 5.21-4.58 8.98-9.44 11.18"/><path fill="#fefefe" d="M0 432V0h1184v864H0Zm500.03 129.75c2.94-1.48 5.23-3.61 6.7-6.25l2.24-4 .01-77.1.02-77.1-2.27-3.38c-1.25-1.85-3.84-4.42-5.75-5.71-3.33-2.25-4.08-2.33-19.55-2.02-15.98.31-16.12.33-19.87 3.19-6.85 5.24-6.56 1.41-6.56 85.64 0 81.89-.2 78.67 5.16 83.68 4.6 4.29 8.55 5.22 22.38 5.26 11.58.04 13.53-.21 17.49-2.21m228.55.35c4.86-2.2 8.04-5.97 9.44-11.18.67-2.5.93-29.66.75-78.62l-.27-74.8-2.35-3.78c-4.07-6.54-7.84-7.72-24.68-7.72-14.97 0-16.93.4-21.32 4.37-5.56 5.05-5.35 1.52-5.2 84.39.15 82.05-.04 79.03 5.21 83.94 4.57 4.26 8.58 5.22 21.84 5.24 10.06.01 13.3-.35 16.58-1.84M446.26 460.75l.38-75.25 2.66-12.11c8.47-38.55 26.4-67.75 56.2-91.56 19.29-15.41 40.56-25.47 64.5-30.49 12.15-2.55 44.15-2.57 55.7-.03 29.48 6.48 53.06 19.44 74.9 41.15 22.57 22.45 35.96 47.37 43.53 81.04 2.21 9.81 2.26 11.48 2.61 86.25l.35 76.25h11.51c8.21 0 12.32-.42 14.37-1.48 4.6-2.38 7.29-7.06 7.94-13.81l.59-6.02 6.31-.34c12.83-.69 13.19-1.57 13.19-31.78v-23.54l-2.88-3.22c-2.64-2.95-3.49-3.27-9.91-3.63l-7.03-.4-.46-38.64c-.43-36.63-.59-39.27-3.01-50.78-12.16-57.85-48.09-105.47-98.73-130.87-40.14-20.13-85.94-24.53-130.98-12.58-14.39 3.82-34.96 13-48.72 21.75-43.25 27.51-73.15 70.87-84.02 121.84-2.44 11.43-2.58 13.84-2.98 50.64l-.42 38.64-6.95.39c-6.24.36-7.27.72-10.17 3.63l-3.24 3.23-.3 22.39c-.33 24.5.23 27.85 5.22 31.12 1.43.93 5.48 1.92 9.08 2.21l6.5.52v5c0 6.18 2.78 11.03 7.85 13.71 2.96 1.57 5.77 1.94 14.84 1.98l11.19.04Z"/></svg>