<svg xmlns="http://www.w3.org/2000/svg" width="130" height="16" fill="none" viewBox="0 0 130 16"><g fill="#e7e7e7" clip-path="url(#clip0_35_8)"><path d="M105.309 2.524h22.474l2.218-2.517H97.817l-8.93 15.222h20.856l1.499-2.517H99.316l2.277-3.835h11.926l1.439-2.517h-11.867Zm-17.2 3.836h-8.87l1.438-2.458c.6-1.018 1.139-1.378 2.038-1.378s1.198.72.719 1.618h9.05l.899-1.618c.659-1.199.659-2.517-.96-2.517H76.482c-1.437 0-2.576.18-3.415 1.558L70.249 6.36c-.78 1.378-.72 2.517 1.199 2.517h9.17l-1.5 2.637c-.419.719-.958 1.198-2.217 1.198-1.078 0-1.019-.719-.54-1.438h-8.99l-1.078 1.798c-.659 1.139-.12 2.157 1.439 2.157h15.822c1.438 0 2.696-.659 3.416-1.858l2.697-4.494c.6-1.139.3-2.517-1.558-2.517"/><path d="M126.611 2.968c-.731 0-1.324.574-1.324 1.277 0 .717.593 1.292 1.324 1.292.728 0 1.318-.575 1.318-1.292 0-.703-.59-1.278-1.318-1.278m0 2.318c-.597 0-1.073-.455-1.073-1.041 0-.568.476-1.026 1.073-1.026.59 0 1.067.458 1.067 1.026 0 .586-.477 1.04-1.067 1.04M67.671.006H54.126c-1.857 0-4.254 0-5.693 2.518L42.44 12.712c-.839 1.379-.12 2.517 1.438 2.517H59.64c1.619 0 2.637-.479 3.896-2.517l5.993-10.188c.78-1.318-.42-2.517-1.858-2.517M60.06 3.903l-4.495 7.612c-.6 1.079-1.139 1.198-2.517 1.198s-1.738-.48-1.319-1.198l4.555-7.612c.66-1.138 1.438-1.378 2.577-1.378s1.798.36 1.199 1.378M43.938.007h-17.38l-7.491 12.705H2.526L0 15.23h35.908c2.217 0 2.936-1.079 3.416-1.917l1.798-3.117c.479-.839.479-1.798-.48-2.337.96 0 2.277-.66 3.057-2.038l1.798-3.056c.898-1.499-.18-2.757-1.559-2.757m-8.93 10.248-.898 1.438c-.24.48-.66 1.02-1.678 1.02h-4.435l2.278-3.836h4.314c.78 0 .78.719.42 1.378m3.776-6.353-.899 1.439c-.24.48-.659 1.019-1.678 1.019h-4.435l2.278-3.836h4.315c.779 0 .779.72.42 1.378"/><path d="M127.288 3.91a.35.35 0 0 0-.164-.31.7.7 0 0 0-.36-.07h-.645V4.97h.219v-.662h.259l.422.663h.251l-.448-.662c.262-.007.466-.113.466-.397m-.71.218h-.24v-.433h.382c.186 0 .349.026.349.211 0 .259-.283.222-.491.222"/></g><defs><clipPath id="clip0_35_8"><path fill="#fff" d="M0 0h130v15.236H0Z"/></clipPath></defs></svg>