<svg xmlns="http://www.w3.org/2000/svg" width="110" height="83" fill="none" viewBox="0 0 110 83"><path fill="#fff" fill-opacity=".8" d="M186.063 0c2.961 0 5.537 1.371 7.783 3.664 2.237 2.284 4.181 5.515 5.909 9.33 3.455 7.631 6.124 17.779 8.517 27.863 2.402 10.117 4.526 20.164 6.897 27.7 1.186 3.77 2.418 6.86 3.75 8.995 1.351 2.164 2.685 3.162 4.02 3.162v1.3c-2.047 0-3.719-1.525-5.123-3.774-1.422-2.278-2.693-5.496-3.887-9.293-2.39-7.596-4.533-17.729-6.921-27.79-2.396-10.093-5.04-20.124-8.438-27.627-1.698-3.75-3.567-6.827-5.653-8.957-2.078-2.12-4.338-3.272-6.854-3.272-2.831 0-5.274 1.257-7.44 3.533-2.178 2.289-4.052 5.586-5.7 9.588-3.298 8.004-5.623 18.633-7.77 29.118-2.138 10.446-4.102 20.766-6.68 28.031-1.287 3.626-2.757 6.58-4.541 8.411-.901.924-1.903 1.585-3.024 1.883q-1.589.424-3.344-.17v.325c-2.048 0-3.715-1.527-5.11-3.777-1.413-2.279-2.672-5.497-3.851-9.294-2.36-7.597-4.464-17.73-6.813-27.792-2.356-10.093-4.961-20.125-8.329-27.628-1.684-3.751-3.541-6.827-5.618-8.957-2.069-2.12-4.324-3.271-6.839-3.271-2.83 0-5.248 1.255-7.37 3.528-2.135 2.287-3.948 5.582-5.525 9.583-3.153 8.003-5.285 18.63-7.238 29.115-1.945 10.446-3.714 20.766-6.146 28.032-1.214 3.624-2.621 6.582-4.364 8.416-.88.925-1.867 1.588-2.978 1.887q-1.576.426-3.328-.169v.32c-2.048 0-3.72-1.524-5.123-3.773-1.422-2.278-2.694-5.496-3.888-9.293-2.39-7.596-4.533-17.728-6.921-27.79-2.396-10.093-5.04-20.124-8.438-27.627-1.698-3.75-3.567-6.827-5.653-8.957-2.077-2.12-4.338-3.272-6.853-3.272-2.83 0-5.248 1.255-7.37 3.528-2.135 2.287-3.949 5.582-5.525 9.583-3.153 8.003-5.285 18.63-7.238 29.115-1.945 10.446-3.714 20.766-6.147 28.032-1.213 3.624-2.62 6.582-4.363 8.416-.88.925-1.867 1.588-2.978 1.887-1.118.301-2.307.22-3.558-.25l.459-1.218c1.034.39 1.942.434 2.76.213.825-.222 1.614-.727 2.375-1.528 1.538-1.619 2.872-4.348 4.072-7.933 2.396-7.156 4.146-17.354 6.102-27.857 1.948-10.463 4.1-21.215 7.307-29.354 1.604-4.07 3.49-7.536 5.783-9.994C31.165 1.471 33.908 0 37.178 0c2.961 0 5.537 1.371 7.783 3.664 2.237 2.284 4.181 5.515 5.91 9.33 3.455 7.631 6.123 17.779 8.517 27.863 2.401 10.117 4.525 20.164 6.896 27.7 1.186 3.77 2.418 6.86 3.75 8.995 1.351 2.164 2.685 3.162 4.02 3.162v.289l.23-.609c1.034.39 1.943.434 2.76.213.825-.222 1.614-.727 2.375-1.528 1.538-1.619 2.872-4.348 4.072-7.933 2.396-7.156 4.146-17.354 6.102-27.857 1.948-10.463 4.1-21.215 7.307-29.354 1.604-4.07 3.489-7.536 5.784-9.994 2.307-2.47 5.049-3.941 8.32-3.941 2.96 0 5.532 1.371 7.769 3.665 2.229 2.285 4.161 5.515 5.873 9.331 3.427 7.632 6.055 17.78 8.41 27.866 2.362 10.118 4.446 20.165 6.788 27.702 1.171 3.77 2.392 6.86 3.716 8.995 1.342 2.163 2.67 3.16 4.004 3.16v.286l.23-.608c1.033.388 1.949.433 2.78.211.838-.223 1.645-.73 2.427-1.533 1.58-1.621 2.974-4.353 4.246-7.938 2.54-7.156 4.483-17.355 6.633-27.858 2.142-10.463 4.489-21.215 7.842-29.352 1.676-4.07 3.623-7.534 5.959-9.99C180.029 1.47 182.793 0 186.063 0"/></svg>