<svg xmlns="http://www.w3.org/2000/svg" width="1184" height="864" viewBox="0 0 1184 864">
<g>
<path d="M 446.26 460.75 L 445.88 536.00 L 434.69 535.96 C425.62,535.92 422.81,535.55 419.85,533.98 C414.78,531.30 412.00,526.45 412.00,520.27 L 412.00 515.27 L 405.50 514.75 C401.90,514.46 397.85,513.47 396.42,512.54 C391.43,509.27 390.87,505.92 391.20,481.42 L 391.50 459.03 L 394.74 455.80 C397.64,452.89 398.67,452.53 404.91,452.17 L 411.86 451.78 L 412.28 413.14 C412.68,376.34 412.82,373.93 415.26,362.50 C426.13,311.53 456.03,268.17 499.28,240.66 C513.04,231.91 533.61,222.73 548.00,218.91 C593.04,206.96 638.84,211.36 678.98,231.49 C729.62,256.89 765.55,304.51 777.71,362.36 C780.13,373.87 780.29,376.51 780.72,413.14 L 781.18 451.78 L 788.21 452.18 C794.63,452.54 795.48,452.86 798.12,455.81 L 801.00 459.03 L 801.00 482.57 C801.00,512.78 800.64,513.66 787.81,514.35 L 781.50 514.69 L 780.91 520.71 C780.26,527.46 777.57,532.14 772.97,534.52 C770.92,535.58 766.81,536.00 758.60,536.00 L 747.09 536.00 L 746.74 459.75 C746.39,384.98 746.34,383.31 744.13,373.50 C736.56,339.83 723.17,314.91 700.60,292.46 C678.76,270.75 655.18,257.79 625.70,251.31 C614.15,248.77 582.15,248.79 570.00,251.34 C546.06,256.36 524.79,266.42 505.50,281.83 C475.70,305.64 457.77,334.84 449.30,373.39 L 446.64 385.50 ZM 500.03 561.75 C496.07,563.75 494.12,564.00 482.54,563.96 C468.71,563.92 464.76,562.99 460.16,558.70 C459.45,558.03 458.83,557.50 458.30,556.91 C454.99,553.19 454.99,546.54 455.00,483.49 C455.00,480.77 455.00,477.95 455.00,475.02 C455.00,471.56 455.00,468.25 455.00,465.08 C454.99,403.09 454.99,395.36 458.85,391.53 C459.60,390.79 460.50,390.20 461.56,389.38 C465.31,386.52 465.45,386.50 481.43,386.19 C496.90,385.88 497.65,385.96 500.98,388.21 C502.89,389.50 505.48,392.07 506.73,393.92 L 509.00 397.30 L 508.97 551.50 L 506.73 555.50 C505.26,558.14 502.97,560.27 500.03,561.75 ZM 728.58 562.10 C725.30,563.59 722.06,563.95 712.00,563.94 C698.74,563.92 694.73,562.96 690.16,558.70 C689.48,558.06 688.89,557.55 688.37,556.98 C684.95,553.14 685.08,546.13 684.95,474.76 C684.95,471.55 684.94,468.47 684.93,465.52 C684.82,402.68 684.80,395.92 688.16,392.22 C688.73,391.60 689.39,391.07 690.15,390.37 C694.54,386.40 696.50,386.00 711.47,386.00 C728.31,386.00 732.08,387.18 736.15,393.72 L 738.50 397.50 L 738.77 472.30 C738.95,521.26 738.69,548.42 738.02,550.92 C736.62,556.13 733.44,559.90 728.58,562.10 Z" fill="rgb(11,11,10)"/>
<path d="M 0.00 432.00 L 0.00 0.00 L 592.00 0.00 L 1184.00 0.00 L 1184.00 432.00 L 1184.00 864.00 L 592.00 864.00 L 0.00 864.00 L 0.00 432.00 ZM 500.03 561.75 C502.97,560.27 505.26,558.14 506.73,555.50 L 508.97 551.50 L 508.98 474.40 L 509.00 397.30 L 506.73 393.92 C505.48,392.07 502.89,389.50 500.98,388.21 C497.65,385.96 496.90,385.88 481.43,386.19 C465.45,386.50 465.31,386.52 461.56,389.38 C454.71,394.62 455.00,390.79 455.00,475.02 C455.00,556.91 454.80,553.69 460.16,558.70 C464.76,562.99 468.71,563.92 482.54,563.96 C494.12,564.00 496.07,563.75 500.03,561.75 ZM 728.58 562.10 C733.44,559.90 736.62,556.13 738.02,550.92 C738.69,548.42 738.95,521.26 738.77,472.30 L 738.50 397.50 L 736.15 393.72 C732.08,387.18 728.31,386.00 711.47,386.00 C696.50,386.00 694.54,386.40 690.15,390.37 C684.59,395.42 684.80,391.89 684.95,474.76 C685.10,556.81 684.91,553.79 690.16,558.70 C694.73,562.96 698.74,563.92 712.00,563.94 C722.06,563.95 725.30,563.59 728.58,562.10 ZM 446.26 460.75 L 446.64 385.50 L 449.30 373.39 C457.77,334.84 475.70,305.64 505.50,281.83 C524.79,266.42 546.06,256.36 570.00,251.34 C582.15,248.79 614.15,248.77 625.70,251.31 C655.18,257.79 678.76,270.75 700.60,292.46 C723.17,314.91 736.56,339.83 744.13,373.50 C746.34,383.31 746.39,384.98 746.74,459.75 L 747.09 536.00 L 758.60 536.00 C766.81,536.00 770.92,535.58 772.97,534.52 C777.57,532.14 780.26,527.46 780.91,520.71 L 781.50 514.69 L 787.81 514.35 C800.64,513.66 801.00,512.78 801.00,482.57 L 801.00 459.03 L 798.12 455.81 C795.48,452.86 794.63,452.54 788.21,452.18 L 781.18 451.78 L 780.72 413.14 C780.29,376.51 780.13,373.87 777.71,362.36 C765.55,304.51 729.62,256.89 678.98,231.49 C638.84,211.36 593.04,206.96 548.00,218.91 C533.61,222.73 513.04,231.91 499.28,240.66 C456.03,268.17 426.13,311.53 415.26,362.50 C412.82,373.93 412.68,376.34 412.28,413.14 L 411.86 451.78 L 404.91 452.17 C398.67,452.53 397.64,452.89 394.74,455.80 L 391.50 459.03 L 391.20 481.42 C390.87,505.92 391.43,509.27 396.42,512.54 C397.85,513.47 401.90,514.46 405.50,514.75 L 412.00 515.27 L 412.00 520.27 C412.00,526.45 414.78,531.30 419.85,533.98 C422.81,535.55 425.62,535.92 434.69,535.96 L 445.88 536.00 L 446.26 460.75 Z" fill="rgb(254,254,254)"/>
</g>
</svg>