<svg width="110" height="83" viewBox="0 0 110 83" fill="none" xmlns="http://www.w3.org/2000/svg">
<path d="M186.063 0C189.024 0 191.6 1.37107 193.846 3.66406C196.083 5.94834 198.027 9.17878 199.755 12.9941C203.21 20.6254 205.879 30.7725 208.272 40.8574C210.674 50.9741 212.798 61.0205 215.169 68.5576C216.355 72.3271 217.587 75.4165 218.919 77.5518C220.27 79.7164 221.604 80.7139 222.939 80.7139V82.0137C220.892 82.0137 219.22 80.4891 217.816 78.2402C216.394 75.9616 215.123 72.7442 213.929 68.9473C211.539 61.3508 209.396 51.2185 207.008 41.1572C204.612 31.0644 201.968 21.0327 198.57 13.5303C196.872 9.77905 195.003 6.70296 192.917 4.57324C190.839 2.45227 188.579 1.30078 186.063 1.30078C183.232 1.3008 180.789 2.55762 178.623 4.83398C176.445 7.12281 174.571 10.4203 172.923 14.4219C169.625 22.4264 167.3 33.0551 165.153 43.54C163.015 53.9863 161.051 64.3063 158.473 71.5713C157.186 75.1965 155.716 78.1512 153.932 79.9824C153.031 80.9063 152.029 81.5669 150.908 81.8652C149.85 82.1468 148.733 82.0921 147.564 81.6943V82.0195C145.516 82.0194 143.849 80.4928 142.454 78.2432C141.041 75.9641 139.782 72.7463 138.603 68.9492C136.243 61.3522 134.139 51.219 131.79 41.1572C129.434 31.0638 126.829 21.0319 123.461 13.5293C121.777 9.77791 119.92 6.70167 117.843 4.57227C115.774 2.45195 113.519 1.30078 111.004 1.30078C108.174 1.30079 105.756 2.55616 103.634 4.8291C101.499 7.11562 99.6857 10.4111 98.1094 14.4121C94.9563 22.4152 92.8238 33.0424 90.8711 43.5273C88.9257 53.973 87.1571 64.2934 84.7246 71.5586C83.511 75.1833 82.1038 78.1405 80.3613 79.9746C79.4817 80.9004 78.4944 81.5629 77.3828 81.8623C76.3337 82.1448 75.2218 82.0907 74.0547 81.6934V82.0137C72.0074 82.0137 70.3352 80.4891 68.9316 78.2402C67.5097 75.9616 66.2384 72.7442 65.0439 68.9473C62.6544 61.3508 60.5112 51.2186 58.123 41.1572C55.7274 31.0644 53.0828 21.0327 49.6855 13.5303C47.9869 9.77905 46.1184 6.70296 44.0322 4.57324C41.9545 2.45225 39.694 1.30078 37.1787 1.30078C34.3483 1.30079 31.9308 2.55616 29.8086 4.8291C27.6738 7.11562 25.8605 10.4112 24.2842 14.4121C21.1311 22.4152 18.9986 33.0425 17.0459 43.5273C15.1005 53.9729 13.3319 64.2934 10.8994 71.5586C9.68581 75.1832 8.27856 78.1405 6.53613 79.9746C5.65654 80.9004 4.66922 81.5629 3.55762 81.8623C2.43997 82.1633 1.25096 82.0824 0 81.6113L0.458984 80.3945C1.49267 80.7838 2.40144 80.8278 3.21973 80.6074C4.04419 80.3854 4.83318 79.8796 5.59375 79.0791C7.1316 77.4603 8.46564 74.7306 9.66602 71.1455C12.0617 63.9903 13.8116 53.7917 15.7676 43.2891C17.7162 32.8257 19.8687 22.0741 23.0752 13.9355C24.6786 9.86584 26.5641 6.39876 28.8584 3.94141C31.1654 1.47061 33.9076 5.71577e-06 37.1787 0C40.139 0 42.7148 1.37107 44.9609 3.66406C47.1984 5.94834 49.1424 9.1788 50.8701 12.9941C54.3257 20.6254 56.9939 30.7725 59.3877 40.8574C61.789 50.9741 63.9132 61.0205 66.2842 68.5576C67.47 72.3271 68.7017 75.4165 70.0342 77.5518C71.3851 79.7164 72.7191 80.7139 74.0547 80.7139V81.0029L74.2842 80.3945C75.3179 80.7838 76.2266 80.8278 77.0449 80.6074C77.8694 80.3854 78.6584 79.8796 79.4189 79.0791C80.9568 77.4603 82.2908 74.7307 83.4912 71.1455C85.8869 63.9902 87.6368 53.7918 89.5928 43.2891C91.5415 32.8257 93.6939 22.0741 96.9004 13.9355C98.5038 9.8658 100.389 6.39876 102.684 3.94141C104.991 1.47061 107.733 5.7157e-06 111.004 0C113.964 0 116.536 1.37123 118.773 3.66504C121.002 5.94985 122.934 9.18045 124.646 12.9961C128.073 20.6281 130.701 30.7765 133.056 40.8623C135.418 50.9798 137.502 61.0269 139.844 68.5645C141.015 72.3342 142.236 75.4236 143.56 77.5586C144.902 79.7225 146.23 80.7186 147.564 80.7187V81.0049L147.794 80.3965C148.827 80.7853 149.743 80.8298 150.574 80.6084C151.412 80.3852 152.219 79.8776 153.001 79.0752C154.581 77.4535 155.975 74.7215 157.247 71.1367C159.787 63.981 161.73 53.7817 163.88 43.2793C166.022 32.8156 168.369 22.0643 171.722 13.9268C173.398 9.85752 175.345 6.39265 177.681 3.9375C180.029 1.4699 182.793 2.2855e-05 186.063 0Z" fill="white" fill-opacity="0.8"/>
</svg>
